#!OML:ASF F:\VICON\USERDATA\INSTALL\rory3\rory3.ASF
:FULLY-SPECIFIED
:DEGREES
10
root -0.6959256377354589 18.924880784078738 -22.66328827354733 4.062749215216411 3.9039221776625572 -5.545609610394952
lfemur -34.707990794711364 -1.7892569511696819 -16.929506073137034
ltibia 44.27830316411453
lfoot 1.19327902719312 -3.4791257531425748
ltoes -24.880985584159625
rfemur 11.850985858388501 6.352458307404566 33.18449301661928
rtibia 32.875409407685964
rfoot 27.640884949874923 -6.219499952618152
rtoes 18.25308997144747
lowerback 12.142918631391671 2.330860833828627 5.463089839836817
upperback -2.5488246167178272 4.153200297601817 1.9357693642637157
thorax -9.338186103908992 1.7586204373026444 -1.817851344562365
lowerneck -15.696828104807182 -5.273037680603236 -2.034390064369744
upperneck 16.62108231041558 -7.067168577886362 1.7022891512525646
head 7.851956663482834 -3.320826737894071 0.09258241253875055
lclavicle -1.7288341312233668e-15 1.783627650497342e-15
lhumerus -72.63078548288873 -2.3046490795122594 95.52940702216156
lradius 102.91200565901279
lwrist 34.72119629141592
lhand -23.848906477162778 0.43563715424125604
lfingers 7.12502
lthumb 2.6232634372125316 30.39920526194979
rclavicle -1.7288341312233668e-15 1.783627650497342e-15
rhumerus -43.87690663360107 16.965585515733828 -96.73280022916566
rradius 117.99398509868087
rwrist -9.070933886543006
rhand -16.08270286576112 46.09455968904815
rfingers 7.12502
rthumb 10.120297116633523 16.35795883519473
11
root -0.6770431047313245 18.97358001560664 -21.632288030383727 3.7213109843409633 4.53709052035705 -5.769179040569462
lfemur -32.93109217222677 -3.406733120298764 -16.515806808189794
ltibia 35.177006795604
lfoot 2.9542377665154587 -5.580852406891603
ltoes -23.8045868466832
rfemur 12.275085416457845 7.275096150181742 34.174691541715376
rtibia 36.671009132015314
rfoot 26.709785105328464 -5.8430405117245945
rtoes 21.893787488373057
lowerback 12.62481596116684 2.2361913813781933 5.862968593836286
upperback -2.4923751714908464 4.119070411753379 1.881009772662631
thorax -9.529263475874387 1.7107908600899528 -2.116510466131614
lowerneck -17.634516814226714 -5.398866713631174 -1.7667545070318647
upperneck 17.565176487494767 -7.28540740474827 1.6055199744153772
head 8.49898091437248 -3.382715956845664 -0.07674450531674659
lclavicle -1.7288339767200558e-15 1.7836276955249437e-15
lhumerus -73.0316848936692 -2.169269064835957 95.30270791980547
lradius 103.10400532453532
lwrist 34.14739810827648
lhand -24.52740276953433 0.9723434164895712
lfingers 7.12502
lthumb 1.9680171915144509 30.943003365968497
rclavicle -1.7288339767200558e-15 1.7836276955249437e-15
rhumerus -43.90700651499882 18.024683766284987 -97.35869862965318
rradius 118.12298525066974
rwrist -8.636705435120254
rhand -19.122987398366696 40.885993069872306
rfingers 7.12502
rthumb 7.186462520883698 11.027993596602528
12
root -0.6602105343912906 19.00157948722894 -20.583786623006205 3.505402090972502 4.518610538887533 -6.2807271735928385
lfemur -31.118592206980246 -4.765290157574091 -15.715707831790695
ltibia 27.690609197048214
lfoot 3.8395472000876083 -6.137241522410464
ltoes -22.70448757999845
rfemur 11.934986440903469 8.299043872990959 35.27768961975834
rtibia 41.737507741168315
rfoot 25.532985229655637 -6.532859474983464
rtoes 21.25718781404829
lowerback 12.50101659824326 2.2644212373281247 6.214607663138796
upperback -2.4635854870166165 4.218599977369645 2.0634784011732763
thorax -9.410285104479016 1.7499104914475394 -2.1283504148256625
lowerneck -17.78701583878193 -5.53834567321938 -1.8250135406728516
upperneck 17.252678478320846 -7.449426536578848 1.6077199912651694
head 8.424962705007593 -3.4663050675276597 -0.08673197672432353
lclavicle -1.7288340233481781e-15 1.7836277300995974e-15
lhumerus -73.39038502227504 -1.8815794517005155 95.57200700359297
lradius 103.34400546079965
lwrist 33.8901989246815
lhand -23.89160632563581 0.9117195607857111
lfingers 7.12502
lthumb 2.5820236856186662 30.875803610132827
rclavicle -1.7288340233481781e-15 1.7836277300995974e-15
rhumerus -44.68380601865936 19.05668205840306 -98.23769636511392
rradius 117.97398494472145
rwrist -7.988107811478337
rhand -18.666189845999455 41.658588227013894
rfingers 7.12502
rthumb 7.62739027121056 11.816088573424079
13
root -0.6536317121287974 18.967480046275135 -19.54438920909577 3.195473679843439 4.618470263654754 -5.999587976961685
lfemur -29.69459301418273 -5.821847587672947 -16.008207372880864
ltibia 22.89921129948575
lfoot 4.568336791703789 -5.878371864768706
ltoes -17.21459361401783
rfemur 11.024187706769727 8.42461352417785 35.28108984628605
rtibia 48.19800589753961
rfoot 24.21678770960051 -8.046627195974958
rtoes 21.311688043993225
lowerback 12.300317788835919 2.25668125836301 5.5160995727525295
upperback -2.648473536802927 4.103030419181694 2.1650376324152854
thorax -9.558403072206417 1.7303007225283853 -1.6030020037812842
lowerneck -15.77972782252747 -5.464906124147699 -1.9001622854521691
upperneck 15.830587092366022 -7.340477247131625 1.7187189895477375
head 7.605152672236279 -3.4499552549364916 0.05514471920105435
lclavicle -1.7288340775281458e-15 1.7836276802475664e-15
lhumerus -74.09008461462213 -2.044289077608111 96.39850419353768
lradius 103.50600531717457
lwrist 33.88979891048536
lhand -23.819606681685027 0.5963496528590493
lfingers 7.12502
lthumb 2.6515533631856854 30.559604711096952
rclavicle -1.7288340775281458e-15 1.7836276802475664e-15
rhumerus -46.37820433818679 19.38938102783495 -99.13909417166494
rradius 117.32298610103776
rwrist -7.597429255015161
rhand -18.219792052946307 41.620788422762644
rfingers 7.12502
rthumb 8.058177976988938 11.794388647117984
14
root -0.6510977743489542 18.891581342714055 -18.508388633299617 2.761935927108728 4.124931494556478 -5.614439635895115
lfemur -28.233493242436683 -5.310788800868179 -16.861606327759937
ltibia 20.675511319060224
lfoot 4.946946427095617 -6.621470656222555
ltoes -15.346595059691793
rfemur 9.117047194323348 8.560533379163449 34.78209041507041
rtibia 55.911102206344275
rfoot 23.89978761140324 -10.273293962016952
rtoes 19.085989640576063
lowerback 12.149118605090397 2.522199537289568 4.99036075824234
upperback -1.7066836209196237 4.280209903208977 1.8606999243779463
thorax -8.437058577573538 1.8823792650802291 -1.6369918948721662
lowerneck -18.32601273745674 -5.5086758536890255 -1.5313684021628695
upperneck 15.660088138770831 -7.528676195283084 2.126975252080628
head 7.995063184053622 -3.4478753319367885 0.039501307567770816
lclavicle -1.7288340352650302e-15 1.783627755025595e-15
lhumerus -71.94048625369025 -3.564336842556717 96.97170222556619
lradius 103.4400052935609
lwrist 34.04179845115038
lhand -24.335103834321536 0.6261835544296099
lfingers 7.12502
lthumb 2.1537061693493977 30.59510455176437
rclavicle -1.7288340352650302e-15 1.783627755025595e-15
rhumerus -45.290905469858394 19.033281727051463 -99.40459330977029
rradius 116.01498822730764
rwrist -7.463129782824456
rhand -18.222492006327794 41.57798868397728
rfingers 7.12502
rthumb 8.055637989610368 11.751488966861293
15
root -0.6580035932225471 18.756783504648936 -17.506087729182404 1.98300999795198 4.903909514458772 -4.9603917118635845
lfemur -26.66199516967697 -3.746102501749897 -18.826603214969754
ltibia 20.667612247661637
lfoot 4.419886703789268 -9.863755373896787
ltoes -12.971197534502615
rfemur 6.425139228466044 6.727717394806451 33.50239249778333
rtibia 64.29529958088654
rfoot 26.245085629638368 -11.622591837515348
rtoes 20.959887675341793
lowerback 12.730615302537005 2.2256214587312124 4.2437427565297705
upperback -1.316117786621283 3.771211710864282 1.6713613494198585
thorax -8.407569013032859 1.670701238272078 -1.3477128125474427
lowerneck -18.42811215123949 -5.466736110416676 -1.6538663673953948
upperneck 15.309390391473096 -7.514426185095894 2.588871007348439
head 7.920215004337535 -3.405295749803702 0.21488431860610946
lclavicle -1.7288339531633427e-15 1.783627753417345e-15
lhumerus -70.61058674306814 -4.905505029953801 97.72369967677457
lradius 103.44400500941204
lwrist 33.87949895047382
lhand -24.21700451049661 0.6199835270855008
lfingers 7.12502
lthumb 2.2678054818732525 30.587704607401268
rclavicle -1.7288339531633427e-15 1.783627753417345e-15
rhumerus -45.27380535435786 18.671482664537905 -99.91209209437535
rradius 113.98499187447473
rwrist -6.972331551203433
rhand -18.718989458219706 40.133397861223436
rfingers 7.12502
rthumb 7.576430373971466 10.289098422807134
16
root -0.6810340006871662 18.536387105682394 -16.55348931362132 1.0212549207251675 6.49742560170452 -4.58068298913187
lfemur -25.651495052445114 -3.0839638469427517 -20.167201076141858
ltibia 22.970510653935268
lfoot 3.264987510092812 -12.262391184410983
ltoes -16.90429369482784
rfemur 3.2541697596221617 3.564544230852917 32.18509472951396
rtibia 72.85799693433636
rfoot 26.143184948239742 -13.328689590705167
rtoes 19.25508928487013
lowerback 13.853609143367438 1.6995846867964604 3.695654161681687
upperback -1.0511606196112444 3.0195044742969905 1.5196324837951107
thorax -8.816853369934332 1.3202544756504162 -1.0962936711193567
lowerneck -18.372312574873394 -5.461526266307808 -1.4497697455845853
upperneck 15.212391033911603 -7.6072458306190205 2.837358733923736
head 7.883485899378359 -3.4143956280621763 0.25555729528917254
lclavicle -1.7288340673781579e-15 1.783627731506718e-15
lhumerus -68.94398833249328 -6.8320417180687105 98.46829713751067
lradius 103.42300525388096
lwrist 32.99460176903335
lhand -23.912406136042605 0.9113426321493174
lfingers 7.12502
lthumb 2.5619938136814424 30.87570361209338
rclavicle -1.7288340673781579e-15 1.783627731506718e-15
rhumerus -45.968204720303504 17.660684140979075 -100.59299038459037
rradius 112.02799527758805
rwrist -6.983731581959891
rhand -19.23838689015857 40.063198308231534
rfingers 7.12502
rthumb 7.075023148076635 10.201398984887907
